<svg width="51" height="50" viewBox="0 0 51 50" fill="none" xmlns="http://www.w3.org/2000/svg">
<path d="M44.5852 20.6843C46.735 19.8782 46.9288 16.0269 45.0177 12.0821C43.1067 8.13737 39.8148 5.59295 37.6648 6.39904M44.5852 20.6843C42.4352 21.4904 39.1434 18.946 37.2323 15.0012C35.3213 11.0564 35.515 7.2051 37.6648 6.39904M44.5852 20.6843L13.3352 39.4344C11.1853 40.2404 7.89331 37.696 5.98231 33.7512C4.07129 29.8065 4.26494 25.955 6.41483 25.149L37.6648 6.39904" stroke="#4CA5E1" stroke-width="1.5" stroke-linejoin="round"/>
<path d="M31.75 28.3473C28.9131 27.1535 23.2569 22.8133 23.3279 15.0014M24.4583 32.7098C22.0277 31.55 16.9583 27.2462 16.125 19.3108" stroke="#4CA5E1" stroke-width="1.5" stroke-linejoin="round"/>
<path d="M30.8121 43.75L29.53 44.6432C29.8194 45.0586 30.2919 45.3079 30.7981 45.3125C31.3042 45.3169 31.7813 45.0761 32.0779 44.6659L30.8121 43.75ZM23.4167 43.3548L22.2831 42.2794C21.7646 42.8259 21.71 43.6648 22.1531 44.274C22.5965 44.8834 23.4115 45.0894 24.091 44.7642L23.4167 43.3548ZM28.7567 40.8L30.0388 39.9067L29.2798 38.8175L28.0823 39.3904L28.7567 40.8ZM31.2646 29.8971C32.2825 31.8221 33.4902 37.3829 29.546 42.8342L32.0779 44.6659C36.839 38.0854 35.4992 31.2202 34.0273 28.4363L31.2646 29.8971ZM23.9058 33.7852C24.6898 36.38 24.2617 38.5113 23.646 40.0036C23.3356 40.7561 22.9771 41.345 22.7013 41.74C22.564 41.9367 22.4488 42.0829 22.3727 42.1746C22.3348 42.2204 22.3069 42.2523 22.2913 42.27C22.2833 42.279 22.2785 42.2842 22.2771 42.2857C22.276 42.2867 22.2765 42.2865 22.2771 42.2857C22.2777 42.2852 22.2788 42.284 22.2796 42.2829C22.2802 42.2825 22.2806 42.2819 22.2813 42.2815C22.2815 42.2811 22.2831 42.2796 22.2831 42.2794C22.2838 42.2788 22.2831 42.2794 23.4167 43.3548C24.5502 44.4302 24.5506 44.4296 24.5513 44.429C24.5508 44.4296 24.5515 44.4288 24.5513 44.429C24.5521 44.4282 24.5542 44.4261 24.555 44.425C24.5569 44.4232 24.559 44.4209 24.5613 44.4184C24.5658 44.4134 24.5715 44.4075 24.5779 44.4004C24.5906 44.3865 24.6071 44.3686 24.6267 44.3465C24.6656 44.3025 24.7177 44.2425 24.7802 44.1671C24.905 44.0163 25.0727 43.8023 25.2633 43.5294C25.6435 42.985 26.1219 42.1965 26.5348 41.1952C27.366 39.1804 27.9302 36.3009 26.8973 32.8815L23.9058 33.7852ZM24.091 44.7642L29.431 42.2094L28.0823 39.3904L22.7423 41.9452L24.091 44.7642ZM27.4746 41.6932L29.53 44.6432L32.094 42.8569L30.0388 39.9067L27.4746 41.6932Z" fill="#4CA5E1"/>
</svg>
