<svg width="18" height="18" viewBox="0 0 18 18" fill="none" xmlns="http://www.w3.org/2000/svg">
<g clip-path="url(#clip0_42_9)">
<path d="M9 16.5C13.1421 16.5 16.5 13.1421 16.5 9C16.5 4.85786 13.1421 1.5 9 1.5C5.64174 1.5 2.8307 3.70717 1.875 6.75H4.125" stroke="#BEBEBE" stroke-width="1.5" stroke-linejoin="round"/>
<path d="M9 5.25V9L10.875 10.875" stroke="#BEBEBE" stroke-width="1.5"/>
<path d="M1.5 9C1.5 9.25297 1.5114 9.50317 1.5337 9.75M6.75 16.5C6.4938 16.4157 6.24353 16.3173 6 16.2058M2.40704 12.75C2.26241 12.4713 2.1334 12.1825 2.02123 11.8846M3.62342 14.4799C3.85268 14.7268 4.09729 14.9581 4.35566 15.1719" stroke="#BEBEBE" stroke-width="1.5" stroke-linecap="square" stroke-linejoin="round"/>
</g>
<defs>
<clipPath id="clip0_42_9">
<rect width="18" height="18" fill="white"/>
</clipPath>
</defs>
</svg>
