<svg width="241" height="110" viewBox="0 0 241 110" fill="none" xmlns="http://www.w3.org/2000/svg">
<path id="Ellipse 1" d="M120.5 107.5C152.653 107.5 181.881 101.863 203.164 92.6496C213.802 88.0446 222.568 82.4968 228.712 76.2094C234.866 69.9105 238.5 62.74 238.5 55C238.5 47.26 234.866 40.0895 228.712 33.7906C222.568 27.5032 213.802 21.9554 203.164 17.3504C181.881 8.13688 152.653 2.5 120.5 2.5C88.3472 2.5 59.1192 8.13688 37.836 17.3504C27.1984 21.9554 18.4315 27.5032 12.2884 33.7906C6.13411 40.0895 2.5 47.26 2.5 55C2.5 62.74 6.13411 69.9105 12.2884 76.2094C18.4315 82.4968 27.1984 88.0446 37.836 92.6496C59.1192 101.863 88.3472 107.5 120.5 107.5Z" stroke="#FC7C05" stroke-width="5"/>
</svg>
