<svg width="50" height="50" viewBox="0 0 50 50" fill="none" xmlns="http://www.w3.org/2000/svg">
<path d="M8.33334 29.1667V43.75" stroke="#4CA5E1" stroke-width="1.5" stroke-linejoin="round"/>
<path d="M8.33334 9.20263L7.36699 7.9748C6.99057 8.27107 6.77084 8.72361 6.77084 9.20263H8.33334ZM8.33334 30.8344H6.77084C6.77084 31.4859 7.17499 32.069 7.78497 32.2975C8.39495 32.5263 9.08278 32.3523 9.51093 31.8615L8.33334 30.8344ZM41.6667 29.3044L42.4235 30.6713L43.2292 30.2252V29.3044H41.6667ZM41.6667 8.34588H43.2292V5.92094L41.021 6.92303L41.6667 8.34588ZM9.2997 10.4304C11.6691 8.56559 17.5866 6.18767 23.7786 9.38265L25.2115 6.60555C17.6316 2.6944 10.4017 5.58634 7.36699 7.9748L9.2997 10.4304ZM23.7786 9.38265C29.5471 12.3592 34.745 12.2214 38.3813 11.2001L37.5363 8.19155C34.5883 9.0195 30.2127 9.18617 25.2115 6.60555L23.7786 9.38265ZM9.51093 31.8615C11.1419 29.9913 16.4435 26.7009 23.7786 30.4856L25.2115 27.7086C16.3848 23.154 9.56516 27.0448 7.15576 29.8075L9.51093 31.8615ZM23.7786 30.4856C31.5744 34.5084 39.18 32.4673 42.4235 30.6713L40.9098 27.9373C38.3383 29.3613 31.8588 31.1386 25.2115 27.7086L23.7786 30.4856ZM40.1042 8.34588V29.3044H43.2292V8.34588H40.1042ZM6.77084 9.20263V30.8344H9.89584V9.20263H6.77084ZM38.3813 11.2001C39.4113 10.9108 40.3913 10.5534 41.1058 10.2724C41.4654 10.131 41.7629 10.007 41.9719 9.91757C42.0767 9.87282 42.1596 9.83663 42.2173 9.81115C42.246 9.79838 42.2688 9.7883 42.2848 9.78115C42.2927 9.77757 42.2992 9.77471 42.3038 9.77263C42.306 9.77159 42.3079 9.77075 42.3094 9.77009C42.3088 9.77032 42.31 9.76978 42.3094 9.77009C42.3096 9.76998 42.3117 9.76905 42.3119 9.76894C42.3119 9.7689 42.3119 9.76898 42.3119 9.76894C42.3121 9.7689 42.3123 9.76871 41.6667 8.34588C41.021 6.92303 41.0208 6.92307 41.021 6.92303C41.0188 6.92405 41.0131 6.92657 41.0075 6.92905C40.9965 6.934 40.979 6.94186 40.9552 6.9523C40.9079 6.97319 40.8363 7.00446 40.7438 7.04407C40.5581 7.12336 40.2894 7.23555 39.9623 7.36411C39.304 7.62296 38.43 7.94055 37.5363 8.19155L38.3813 11.2001Z" fill="#4CA5E1"/>
</svg>
