<svg width="51" height="50" viewBox="0 0 51 50" fill="none" xmlns="http://www.w3.org/2000/svg">
<g id="Frame">
<path id="Vector" d="M17.1669 4.16669H6.75035L6.75 45.8334H44.25V29.1667" stroke="#4CA5E1" stroke-width="1.5" stroke-linejoin="round"/>
<path id="Vector_2" d="M46.3333 10.4166L46.9881 11.8353C47.5415 11.5799 47.8958 11.0261 47.8958 10.4166C47.8958 9.80718 47.5415 9.25334 46.9881 8.99795L46.3333 10.4166ZM32.7917 16.6666L32.1369 18.0853L32.7917 18.3875L33.4465 18.0853L32.7917 16.6666ZM32.7917 4.1667L33.4465 2.74801L32.7917 2.4458L32.1369 2.74801L32.7917 4.1667ZM19.25 10.4166L18.5952 8.99795C18.0419 9.25334 17.6875 9.80718 17.6875 10.4166C17.6875 11.0261 18.0419 11.5799 18.5952 11.8353L19.25 10.4166ZM26.5417 22.6852L24.9892 22.8625L25.0662 23.5367L25.6117 23.9409L26.5417 22.6852ZM39.0417 22.6852L39.9717 23.9409L40.5171 23.5367L40.5942 22.8625L39.0417 22.6852ZM19.9048 11.8353L33.4465 5.58538L32.1369 2.74801L18.5952 8.99795L19.9048 11.8353ZM46.9881 8.99795L33.4465 2.74801L32.1369 5.58538L45.6785 11.8353L46.9881 8.99795ZM45.6785 8.99795L32.1369 15.2479L33.4465 18.0853L46.9881 11.8353L45.6785 8.99795ZM18.5952 11.8353L32.1369 18.0853L33.4465 15.2479L19.9048 8.99795L18.5952 11.8353ZM23.9475 13.7418L24.9892 22.8625L28.0942 22.5079L27.0525 13.3872L23.9475 13.7418ZM38.5308 13.3872L37.4892 22.5079L40.5942 22.8625L41.6358 13.7418L38.5308 13.3872ZM25.6117 23.9409C27.8973 25.6338 30.299 26.5625 32.7917 26.5625C35.2844 26.5625 37.686 25.6338 39.9717 23.9409L38.1117 21.4296C36.2306 22.8229 34.4656 23.4375 32.7917 23.4375C31.1177 23.4375 29.3527 22.8229 27.4717 21.4296L25.6117 23.9409ZM43.6423 11.9037V21.5279H46.7673V11.9037H43.6423Z" fill="#4CA5E1"/>
</g>
</svg>
