<svg width="50" height="50" viewBox="0 0 50 50" fill="none" xmlns="http://www.w3.org/2000/svg">
<path d="M13.7135 15.0789C19.9783 16.1833 23.7121 18.4936 25 19.8199C26.2879 18.4936 30.0217 16.1833 36.2865 15.0789C39.4602 14.5193 41.0471 14.2396 42.3985 15.3119C43.75 16.3842 43.75 18.1254 43.75 21.6079V34.1231C43.75 37.3075 43.75 38.8996 42.8827 39.8935C42.0152 40.8875 40.1056 41.2242 36.2865 41.8975C32.8819 42.4977 30.2248 43.4539 28.3015 44.415C26.4094 45.3606 25.4631 45.8333 25 45.8333C24.5369 45.8333 23.5906 45.3606 21.6985 44.415C19.7752 43.4539 17.1181 42.4977 13.7135 41.8975C9.89435 41.2242 7.98475 40.8875 7.11738 39.8935C6.25 38.8996 6.25 37.3075 6.25 34.1231V21.6079C6.25 18.1254 6.25 16.3842 7.60146 15.3119C8.95294 14.2396 10.5398 14.5193 13.7135 15.0789Z" stroke="#4CA5E1" stroke-width="1.5" stroke-linecap="round" stroke-linejoin="round"/>
<path d="M25 18.75V45.8333" stroke="#4CA5E1" stroke-width="1.5" stroke-linejoin="round"/>
<path d="M17.7083 6.37204C19.8153 4.97496 22.3102 4.16669 24.9846 4.16669C27.6719 4.16669 30.1781 4.98287 32.2917 6.39254M28.3796 11.4584C27.3794 10.8547 26.2202 10.5096 24.9846 10.5096C23.7621 10.5096 22.6146 10.8474 21.6217 11.4391" stroke="#4CA5E1" stroke-width="1.5" stroke-linecap="round"/>
</svg>
