<svg width="65" height="50" viewBox="0 0 65 50" fill="none" xmlns="http://www.w3.org/2000/svg">
<path d="M51.5032 9H3.50317C2.3986 9 1.50317 9.89543 1.50317 11V47C1.50317 48.1046 2.39861 49 3.50318 49H51.5032C52.6077 49 53.5032 48.1046 53.5032 47V11C53.5032 9.89543 52.6077 9 51.5032 9Z" stroke="white" stroke-width="2" stroke-miterlimit="10"/>
<path d="M10.5032 7V1H63.5032V41H55.5032" stroke="white" stroke-width="2" stroke-miterlimit="10"/>
<path d="M1.50317 39L15.5032 25L29.5032 41L39.5032 35L53.5032 47" stroke="white" stroke-width="2" stroke-miterlimit="10"/>
<path d="M40.5032 27C43.2646 27 45.5032 24.7614 45.5032 22C45.5032 19.2386 43.2646 17 40.5032 17C37.7418 17 35.5032 19.2386 35.5032 22C35.5032 24.7614 37.7418 27 40.5032 27Z" stroke="white" stroke-width="2" stroke-miterlimit="10"/>
</svg>
