<svg width="96" height="101" viewBox="0 0 96 101" fill="none" xmlns="http://www.w3.org/2000/svg">
<path fill-rule="evenodd" clip-rule="evenodd" d="M10.1082 28.626C10.0202 28.8288 10.226 28.1961 10.2858 27.9828L10.5166 27.1327C12.9196 18.4275 15.3145 9.71656 17.711 1L94.8825 1.15757L9.59644 70.604L48.5709 23.5902L19.2979 23.6685C18.7522 23.6702 18.2146 23.6613 17.669 23.7081C14.2014 24.0031 11.1898 26.1137 10.1082 28.626Z" fill="#636463"/>
<path d="M10.1082 28.626C10.0202 28.8288 10.226 28.1961 10.2858 27.9828L10.5166 27.1327C12.9196 18.4275 15.3145 9.71656 17.711 1L94.8825 1.15757L9.59644 70.604L48.5709 23.5902L19.2979 23.6685C18.7522 23.6702 18.2146 23.6613 17.669 23.7081C14.2014 24.0031 11.1898 26.1137 10.1082 28.626Z" stroke="#FFFCFC" stroke-width="0.48" stroke-miterlimit="22.926"/>
<path fill-rule="evenodd" clip-rule="evenodd" d="M90.6965 48.6126C90.7829 48.4098 88.3654 63.413 84.0962 78.9213L3.55634 79.3714L90.5407 8.8479L51.5566 56.3029L80.8352 56.2181C81.3769 56.2181 81.9169 56.231 82.4601 56.1809C85.9301 55.8843 89.6165 51.1265 90.6965 48.6126Z" fill="#D22F14"/>
<path d="M90.6965 48.6126C90.7829 48.4098 88.3654 63.413 84.0962 78.9214L3.55634 79.3714L90.5407 8.8479L51.5566 56.3029L80.8352 56.2181C81.3769 56.2181 81.9169 56.231 82.4601 56.1809C85.9301 55.8843 89.6165 51.1265 90.6965 48.6126Z" stroke="#FFFCFC" stroke-width="0.48" stroke-miterlimit="22.926"/>
<path fill-rule="evenodd" clip-rule="evenodd" d="M14.2813 100.999H0.577881L10.0493 88.1179H3.76541L4.2247 84.5608H17.2775L7.82469 97.4162H14.7381L14.2813 100.999ZM16.8691 100.999H26.3687L26.8369 97.3144H21.4587L21.8146 94.5436H26.8877L27.3389 91.0148H22.2667L22.6299 88.1631H28.0081L28.469 84.5608H18.9702L16.8691 100.999ZM29.1632 100.999L31.2659 84.5608H35.3437L40.1189 93.0147C40.211 93.1852 40.3474 93.5311 40.5443 94.0523C40.7356 94.5759 40.9358 95.1908 41.1554 95.9116C41.157 95.2329 41.1739 94.6284 41.2022 94.0919C41.2304 93.561 41.2716 93.0899 41.3281 92.6794L42.3645 84.5616H46.4222L44.3195 101H40.2602L35.4922 92.5089C35.3929 92.336 35.2485 91.9909 35.0572 91.4729C34.8675 90.9493 34.6657 90.336 34.4534 89.6362C34.4461 90.3247 34.4292 90.9348 34.405 91.4673C34.3751 91.9966 34.3315 92.4677 34.2758 92.8822L33.241 101L29.1632 100.999ZM47.75 100.999L49.851 84.5608H54.1218L52.0207 100.999H47.75ZM57.6637 100.999L59.2675 88.4427H55.7894L56.2899 84.5608H67.4652L66.9664 88.4427H63.4939L61.886 100.999H57.6637ZM67.4273 100.999H71.6528L72.5076 94.3068H78.1409L77.2861 100.999H81.523L83.624 84.5608H79.3872L78.5703 90.9485H72.9387L73.7539 84.5608H69.5259L67.4273 100.999Z" fill="#B2B3B2"/>
</svg>
